<svg width="20" height="20" viewBox="0 0 20 20" fill="none" xmlns="http://www.w3.org/2000/svg">
<g opacity="0.8">
<path d="M15.5999 2.39971H13.7999V1.79971C13.7999 1.64058 13.7367 1.48796 13.6242 1.37544C13.5116 1.26292 13.359 1.19971 13.1999 1.19971C13.0408 1.19971 12.8882 1.26292 12.7756 1.37544C12.6631 1.48796 12.5999 1.64058 12.5999 1.79971V2.39971H6.5999V1.79971C6.5999 1.64058 6.53669 1.48796 6.42417 1.37544C6.31164 1.26292 6.15903 1.19971 5.9999 1.19971C5.84077 1.19971 5.68816 1.26292 5.57564 1.37544C5.46312 1.48796 5.3999 1.64058 5.3999 1.79971V2.39971H3.5999C3.28164 2.39971 2.97642 2.52614 2.75137 2.75118C2.52633 2.97622 2.3999 3.28145 2.3999 3.59971V15.5997C2.3999 15.918 2.52633 16.2232 2.75137 16.4482C2.97642 16.6733 3.28164 16.7997 3.5999 16.7997H15.5999C15.9182 16.7997 16.2234 16.6733 16.4484 16.4482C16.6735 16.2232 16.7999 15.918 16.7999 15.5997V3.59971C16.7999 3.28145 16.6735 2.97622 16.4484 2.75118C16.2234 2.52614 15.9182 2.39971 15.5999 2.39971ZM5.3999 3.59971V4.19971C5.3999 4.35884 5.46312 4.51145 5.57564 4.62397C5.68816 4.73649 5.84077 4.79971 5.9999 4.79971C6.15903 4.79971 6.31164 4.73649 6.42417 4.62397C6.53669 4.51145 6.5999 4.35884 6.5999 4.19971V3.59971H12.5999V4.19971C12.5999 4.35884 12.6631 4.51145 12.7756 4.62397C12.8882 4.73649 13.0408 4.79971 13.1999 4.79971C13.359 4.79971 13.5116 4.73649 13.6242 4.62397C13.7367 4.51145 13.7999 4.35884 13.7999 4.19971V3.59971H15.5999V5.99971H3.5999V3.59971H5.3999ZM15.5999 15.5997H3.5999V7.19971H15.5999V15.5997ZM10.4999 9.89971C10.4999 10.0777 10.4471 10.2517 10.3482 10.3997C10.2493 10.5477 10.1088 10.6631 9.94432 10.7312C9.77986 10.7993 9.5989 10.8171 9.42432 10.7824C9.24974 10.7477 9.08937 10.662 8.96351 10.5361C8.83764 10.4102 8.75192 10.2499 8.7172 10.0753C8.68247 9.90071 8.70029 9.71975 8.76841 9.55529C8.83653 9.39084 8.95188 9.25028 9.09989 9.15138C9.24789 9.05249 9.4219 8.99971 9.5999 8.99971C9.8386 8.99971 10.0675 9.09453 10.2363 9.26331C10.4051 9.43209 10.4999 9.66101 10.4999 9.89971ZM13.7999 9.89971C13.7999 10.0777 13.7471 10.2517 13.6482 10.3997C13.5493 10.5477 13.4088 10.6631 13.2443 10.7312C13.0799 10.7993 12.8989 10.8171 12.7243 10.7824C12.5497 10.7477 12.3894 10.662 12.2635 10.5361C12.1376 10.4102 12.0519 10.2499 12.0172 10.0753C11.9825 9.90071 12.0003 9.71975 12.0684 9.55529C12.1365 9.39084 12.2519 9.25028 12.3999 9.15138C12.5479 9.05249 12.7219 8.99971 12.8999 8.99971C13.1386 8.99971 13.3675 9.09453 13.5363 9.26331C13.7051 9.43209 13.7999 9.66101 13.7999 9.89971ZM7.1999 12.8997C7.1999 13.0777 7.14712 13.2517 7.04822 13.3997C6.94933 13.5477 6.80877 13.6631 6.64432 13.7312C6.47986 13.7993 6.2989 13.8171 6.12432 13.7824C5.94974 13.7477 5.78937 13.662 5.66351 13.5361C5.53764 13.4102 5.45192 13.2499 5.4172 13.0753C5.38247 12.9007 5.40029 12.7197 5.46841 12.5553C5.53653 12.3908 5.65189 12.2503 5.79989 12.1514C5.94789 12.0525 6.1219 11.9997 6.2999 11.9997C6.5386 11.9997 6.76752 12.0945 6.9363 12.2633C7.10508 12.4321 7.1999 12.661 7.1999 12.8997ZM10.4999 12.8997C10.4999 13.0777 10.4471 13.2517 10.3482 13.3997C10.2493 13.5477 10.1088 13.6631 9.94432 13.7312C9.77986 13.7993 9.5989 13.8171 9.42432 13.7824C9.24974 13.7477 9.08937 13.662 8.96351 13.5361C8.83764 13.4102 8.75192 13.2499 8.7172 13.0753C8.68247 12.9007 8.70029 12.7197 8.76841 12.5553C8.83653 12.3908 8.95188 12.2503 9.09989 12.1514C9.24789 12.0525 9.4219 11.9997 9.5999 11.9997C9.8386 11.9997 10.0675 12.0945 10.2363 12.2633C10.4051 12.4321 10.4999 12.661 10.4999 12.8997ZM13.7999 12.8997C13.7999 13.0777 13.7471 13.2517 13.6482 13.3997C13.5493 13.5477 13.4088 13.6631 13.2443 13.7312C13.0799 13.7993 12.8989 13.8171 12.7243 13.7824C12.5497 13.7477 12.3894 13.662 12.2635 13.5361C12.1376 13.4102 12.0519 13.2499 12.0172 13.0753C11.9825 12.9007 12.0003 12.7197 12.0684 12.5553C12.1365 12.3908 12.2519 12.2503 12.3999 12.1514C12.5479 12.0525 12.7219 11.9997 12.8999 11.9997C13.1386 11.9997 13.3675 12.0945 13.5363 12.2633C13.7051 12.4321 13.7999 12.661 13.7999 12.8997Z" fill="white"/>
</g>
</svg>
