<svg width="32" height="32" viewBox="0 0 32 32" fill="none" xmlns="http://www.w3.org/2000/svg">
<path fill-rule="evenodd" clip-rule="evenodd" d="M5.07392 5.07393C3.2 6.95041 3.2 9.96609 3.2 16C3.2 22.0339 3.2 25.0509 5.07392 26.9248C6.9504 28.8 9.96608 28.8 16 28.8C22.0339 28.8 25.0509 28.8 26.9248 26.9248C28.8 25.0522 28.8 22.0339 28.8 16C28.8 9.96609 28.8 6.94913 26.9248 5.07393C25.0522 3.20001 22.0339 3.20001 16 3.20001C9.96608 3.20001 6.94912 3.20001 5.07392 5.07393ZM22.4 16.32C22.6546 16.32 22.8988 16.4212 23.0788 16.6012C23.2589 16.7812 23.36 17.0254 23.36 17.28V23.68C23.36 23.9346 23.2589 24.1788 23.0788 24.3588C22.8988 24.5389 22.6546 24.64 22.4 24.64C22.1454 24.64 21.9012 24.5389 21.7212 24.3588C21.5411 24.1788 21.44 23.9346 21.44 23.68V17.28C21.44 17.0254 21.5411 16.7812 21.7212 16.6012C21.9012 16.4212 22.1454 16.32 22.4 16.32ZM16.96 8.32001C16.96 8.0654 16.8589 7.82122 16.6788 7.64119C16.4988 7.46115 16.2546 7.36001 16 7.36001C15.7454 7.36001 15.5012 7.46115 15.3212 7.64119C15.1411 7.82122 15.04 8.0654 15.04 8.32001V23.68C15.04 23.9346 15.1411 24.1788 15.3212 24.3588C15.5012 24.5389 15.7454 24.64 16 24.64C16.2546 24.64 16.4988 24.5389 16.6788 24.3588C16.8589 24.1788 16.96 23.9346 16.96 23.68V8.32001ZM9.6 11.2C9.85461 11.2 10.0988 11.3012 10.2788 11.4812C10.4589 11.6612 10.56 11.9054 10.56 12.16V23.68C10.56 23.9346 10.4589 24.1788 10.2788 24.3588C10.0988 24.5389 9.85461 24.64 9.6 24.64C9.34539 24.64 9.10121 24.5389 8.92118 24.3588C8.74114 24.1788 8.64 23.9346 8.64 23.68V12.16C8.64 11.9054 8.74114 11.6612 8.92118 11.4812C9.10121 11.3012 9.34539 11.2 9.6 11.2Z" fill="white"/>
</svg>
