<svg width="32" height="32" viewBox="0 0 32 32" fill="none" xmlns="http://www.w3.org/2000/svg">
<mask id="mask0_9_2" style="mask-type:alpha" maskUnits="userSpaceOnUse" x="0" y="0" width="32" height="32">
<rect width="32" height="32" fill="#D9D9D9"/>
</mask>
<g mask="url(#mask0_9_2)">
<path d="M16.1003 29.3333C14.2336 29.3333 12.4836 28.9778 10.8503 28.2667C9.21692 27.5556 7.7947 26.5945 6.58359 25.3833C5.37248 24.1722 4.41137 22.75 3.70026 21.1167C2.98915 19.4833 2.63359 17.7333 2.63359 15.8667C2.63359 13.1111 3.3947 10.6111 4.91692 8.36668C6.43915 6.12223 8.47804 4.47779 11.0336 3.43335C11.3447 3.32223 11.6669 3.28335 12.0003 3.31668C12.3336 3.35001 12.6114 3.45557 12.8336 3.63335C13.0114 3.7889 13.1503 4.00557 13.2503 4.28335C13.3503 4.56112 13.4003 4.92223 13.4003 5.36668C13.4447 7.12223 13.8003 8.79446 14.4669 10.3833C15.1336 11.9722 16.0891 13.3889 17.3336 14.6333C18.578 15.8778 20.0003 16.8333 21.6003 17.5C23.2003 18.1667 24.878 18.5222 26.6336 18.5667C27.1003 18.5667 27.4558 18.6056 27.7003 18.6833C27.9447 18.7611 28.1447 18.8889 28.3003 19.0667C28.478 19.2889 28.5947 19.5778 28.6503 19.9333C28.7058 20.2889 28.678 20.6111 28.5669 20.9C27.5447 23.4556 25.9003 25.5 23.6336 27.0333C21.3669 28.5667 18.8558 29.3333 16.1003 29.3333ZM19.0669 9.73335L16.9336 7.60001C16.6669 7.33335 16.5336 7.02223 16.5336 6.66668C16.5336 6.31112 16.6669 6.00001 16.9336 5.73335L19.0669 3.60001C19.3336 3.33335 19.6447 3.20001 20.0003 3.20001C20.3558 3.20001 20.6669 3.33335 20.9336 3.60001L23.0669 5.73335C23.3336 6.00001 23.4669 6.31112 23.4669 6.66668C23.4669 7.02223 23.3336 7.33335 23.0669 7.60001L20.9336 9.73335C20.6669 10 20.3558 10.1333 20.0003 10.1333C19.6447 10.1333 19.3336 10 19.0669 9.73335ZM25.7336 13.7333L24.9336 12.9333C24.6669 12.6667 24.5336 12.3556 24.5336 12C24.5336 11.6445 24.6669 11.3333 24.9336 11.0667L25.7336 10.2667C26.0003 10 26.3114 9.86668 26.6669 9.86668C27.0225 9.86668 27.3336 10 27.6003 10.2667L28.4003 11.0667C28.6669 11.3333 28.8003 11.6445 28.8003 12C28.8003 12.3556 28.6669 12.6667 28.4003 12.9333L27.6003 13.7333C27.3336 14 27.0225 14.1333 26.6669 14.1333C26.3114 14.1333 26.0003 14 25.7336 13.7333Z" fill="white"/>
</g>
</svg>
