<svg width="32" height="32" viewBox="0 0 32 32" fill="none" xmlns="http://www.w3.org/2000/svg">
<g clip-path="url(#clip0_10_6)">
<path d="M30.6387 7.585C29.6825 5.93625 27.1575 5.565 23.3262 6.5025C21.4471 5.05504 19.1811 4.19697 16.8145 4.03666C14.448 3.87635 12.087 4.421 10.0298 5.60182C7.97257 6.78263 6.31146 8.54663 5.25628 10.671C4.20109 12.7954 3.79916 15.1848 4.10125 17.5375C0.636246 21.125 0.686246 23.25 1.3625 24.415C2 25.52 3.33 26 5.08 26C6.29502 25.9749 7.50289 25.807 8.67875 25.5C10.5577 26.9463 12.823 27.8034 15.1887 27.9634C17.5544 28.1233 19.9145 27.5789 21.971 26.3987C24.0275 25.2185 25.6883 23.4555 26.7438 21.3323C27.7992 19.209 28.202 16.8207 27.9012 14.4687C29.465 12.8437 30.505 11.3 30.8587 9.97875C31.1037 9.06375 31.03 8.25875 30.6387 7.585ZM28.9275 9.46C28.1637 12.3075 22.8462 16.6237 17.9875 19.415C9.51125 24.29 3.785 24.605 3.0925 23.415C2.91 23.1012 3.01125 22.51 3.37 21.79C3.72532 21.116 4.15645 20.4849 4.655 19.9087C4.86618 20.5197 5.12662 21.1125 5.43375 21.6812C5.48057 21.7708 5.5534 21.844 5.64265 21.8913C5.7319 21.9386 5.83339 21.9578 5.93375 21.9462C6.6489 21.8581 7.35692 21.7194 8.0525 21.5312C10.7062 20.8375 13.8812 19.4712 16.9925 17.6837C20.1037 15.8962 22.8675 13.8512 24.7987 11.915C25.3069 11.4123 25.7793 10.8748 26.2125 10.3062C26.2726 10.2252 26.3069 10.1279 26.3106 10.027C26.3144 9.9262 26.2876 9.82657 26.2337 9.74125C25.8969 9.19248 25.5165 8.67164 25.0962 8.18375C26.8725 7.89 28.5175 7.9125 28.9087 8.58875C29.0237 8.785 29.03 9.07875 28.9275 9.46125V9.46Z" fill="white"/>
</g>
<defs>
<clipPath id="clip0_10_6">
<rect width="32" height="32" fill="white"/>
</clipPath>
</defs>
</svg>
