<svg width="20" height="20" viewBox="0 0 20 20" fill="none" xmlns="http://www.w3.org/2000/svg">
<path d="M17.5 3.75H2.5C2.16848 3.75 1.85054 3.8817 1.61612 4.11612C1.3817 4.35054 1.25 4.66848 1.25 5V15C1.25 15.3315 1.3817 15.6495 1.61612 15.8839C1.85054 16.1183 2.16848 16.25 2.5 16.25H17.5C17.8315 16.25 18.1495 16.1183 18.3839 15.8839C18.6183 15.6495 18.75 15.3315 18.75 15V5C18.75 4.66848 18.6183 4.35054 18.3839 4.11612C18.1495 3.8817 17.8315 3.75 17.5 3.75ZM5 13.125H3.75C3.58424 13.125 3.42527 13.0592 3.30806 12.9419C3.19085 12.8247 3.125 12.6658 3.125 12.5C3.125 12.3342 3.19085 12.1753 3.30806 12.0581C3.42527 11.9408 3.58424 11.875 3.75 11.875H5C5.16576 11.875 5.32473 11.9408 5.44194 12.0581C5.55915 12.1753 5.625 12.3342 5.625 12.5C5.625 12.6658 5.55915 12.8247 5.44194 12.9419C5.32473 13.0592 5.16576 13.125 5 13.125ZM12.5 13.125H7.5C7.33424 13.125 7.17527 13.0592 7.05806 12.9419C6.94085 12.8247 6.875 12.6658 6.875 12.5C6.875 12.3342 6.94085 12.1753 7.05806 12.0581C7.17527 11.9408 7.33424 11.875 7.5 11.875H12.5C12.6658 11.875 12.8247 11.9408 12.9419 12.0581C13.0592 12.1753 13.125 12.3342 13.125 12.5C13.125 12.6658 13.0592 12.8247 12.9419 12.9419C12.8247 13.0592 12.6658 13.125 12.5 13.125ZM16.25 13.125H15C14.8342 13.125 14.6753 13.0592 14.5581 12.9419C14.4408 12.8247 14.375 12.6658 14.375 12.5C14.375 12.3342 14.4408 12.1753 14.5581 12.0581C14.6753 11.9408 14.8342 11.875 15 11.875H16.25C16.4158 11.875 16.5747 11.9408 16.6919 12.0581C16.8092 12.1753 16.875 12.3342 16.875 12.5C16.875 12.6658 16.8092 12.8247 16.6919 12.9419C16.5747 13.0592 16.4158 13.125 16.25 13.125ZM16.25 10.625H3.75C3.58424 10.625 3.42527 10.5592 3.30806 10.4419C3.19085 10.3247 3.125 10.1658 3.125 10C3.125 9.83424 3.19085 9.67527 3.30806 9.55806C3.42527 9.44085 3.58424 9.375 3.75 9.375H16.25C16.4158 9.375 16.5747 9.44085 16.6919 9.55806C16.8092 9.67527 16.875 9.83424 16.875 10C16.875 10.1658 16.8092 10.3247 16.6919 10.4419C16.5747 10.5592 16.4158 10.625 16.25 10.625ZM16.25 8.125H3.75C3.58424 8.125 3.42527 8.05915 3.30806 7.94194C3.19085 7.82473 3.125 7.66576 3.125 7.5C3.125 7.33424 3.19085 7.17527 3.30806 7.05806C3.42527 6.94085 3.58424 6.875 3.75 6.875H16.25C16.4158 6.875 16.5747 6.94085 16.6919 7.05806C16.8092 7.17527 16.875 7.33424 16.875 7.5C16.875 7.66576 16.8092 7.82473 16.6919 7.94194C16.5747 8.05915 16.4158 8.125 16.25 8.125Z" fill="white"/>
</svg>
