<svg width="35" height="35" viewBox="0 0 35 35" fill="none" xmlns="http://www.w3.org/2000/svg">
<path d="M31.9056 24.867C31.6485 26.8214 30.6887 28.6153 29.2055 29.9137C27.7223 31.2122 25.8172 31.9263 23.846 31.9228C12.3941 31.9228 3.0768 22.6055 3.0768 11.1536C3.07326 9.18234 3.7874 7.27724 5.08583 5.79407C6.38427 4.31091 8.17819 3.35111 10.1326 3.09394C10.6268 3.03359 11.1273 3.1347 11.5593 3.38216C11.9913 3.62963 12.3317 4.01018 12.5297 4.46701L15.5758 11.2675V11.2848C15.7274 11.6345 15.79 12.0163 15.758 12.3961C15.7261 12.7758 15.6005 13.1418 15.3927 13.4612C15.3667 13.5002 15.3393 13.5362 15.3104 13.5723L12.3076 17.1319C13.3879 19.3271 15.684 21.6031 17.908 22.6862L21.4186 19.6992C21.4531 19.6702 21.4892 19.6433 21.5268 19.6185C21.846 19.4056 22.2132 19.2756 22.5952 19.2404C22.9772 19.2051 23.362 19.2657 23.7148 19.4165L23.7335 19.4252L30.5282 22.4699C30.9859 22.6672 31.3674 23.0073 31.6156 23.4394C31.8639 23.8714 31.9657 24.3723 31.9056 24.867Z" fill="#49F436"/>
</svg>
