<svg width="24" height="24" viewBox="0 0 24 24" fill="none" xmlns="http://www.w3.org/2000/svg">
<path d="M4.03886 14.2256C3.43881 13.4437 3.1439 12.4702 3.20922 11.4867C3.27453 10.5033 3.6956 9.57722 4.39378 8.88154C8.44264 4.83268 15.031 4.83268 19.0798 8.88154C19.778 9.57723 20.1991 10.5033 20.2644 11.4867C20.3297 12.4702 20.0348 13.4437 19.4348 14.2256C19.2814 14.4217 19.0687 14.5629 18.8284 14.6282C18.5882 14.6934 18.3333 14.6792 18.1018 14.5877L14.6205 13.2603L14.6144 13.2542C14.4371 13.1842 14.28 13.0713 14.157 12.9257C14.0341 12.7802 13.9491 12.6064 13.9096 12.42C13.905 12.397 13.902 12.3746 13.8994 12.3516L13.7026 10.0314C12.5445 9.63726 10.9281 9.6444 9.75878 10.0478L9.57367 12.345C9.57173 12.3674 9.56849 12.3897 9.56398 12.4118C9.5264 12.5999 9.44252 12.7757 9.31991 12.9232C9.19731 13.0708 9.03986 13.1854 8.86181 13.2568L8.85212 13.2603L5.37336 14.5862C5.14181 14.6782 4.88669 14.6928 4.64615 14.6279C4.4056 14.5629 4.19255 14.4218 4.03886 14.2256Z" fill="#F44336"/>
</svg>
